<svg width="596" height="261" viewBox="0 0 596 261" fill="none" xmlns="http://www.w3.org/2000/svg">
<g clip-path="url(#clip0_570_3571)">
<path d="M595.42 201.45H0.5V259.61H595.42V201.45Z" fill="#004C8C" stroke="#004C8C" stroke-miterlimit="10"/>
<path fill-rule="evenodd" clip-rule="evenodd" d="M391.3 254.66L397.75 206.72C426.575 204.651 426.421 214.216 426.343 219.021C426.342 219.092 426.341 219.161 426.34 219.23C425.81 236.35 399.71 232.89 399.71 232.89L396.91 254.66H391.3ZM420.98 220.36C420.8 229.47 400.3 227.72 400.3 227.72C400.3 227.72 401.99 215.41 402.91 211.04C413.07 210.86 421.16 211.25 420.98 220.36Z" fill="#FDFC05"/>
<path d="M435.48 206.18L429.12 254.69L456.49 254.56L456.44 249.41L435.23 249.45L440.73 206L435.48 206.18Z" fill="#FDFC05"/>
<path fill-rule="evenodd" clip-rule="evenodd" d="M458.78 254.26L486.37 205.78L491.89 205.78L505.68 255.18H499.25L495.96 242.97L472.05 242.83L465.48 254.13L458.78 254.26ZM475.33 237.32L487.68 214.59L493.6 237.58L475.33 237.32Z" fill="#FDFC05"/>
<path d="M513.61 245.24C514.582 246.972 516.01 248.405 517.74 249.382C519.47 250.358 521.434 250.842 523.42 250.78C530.58 250.78 534.65 247.36 534.85 241.91C535.05 236.46 531.5 232.85 524.53 232.71C521.502 232.646 518.617 231.415 516.476 229.274C514.335 227.133 513.103 224.247 513.04 221.22C513.1 215.83 515.34 204.73 531.3 204.93C531.38 205.12 536.95 204.12 544.5 210.5C544 211 539.49 214.98 539.49 214.98C538.586 213.49 537.322 212.251 535.814 211.377C534.306 210.503 532.602 210.023 530.86 209.98C526.86 210.12 519 211.377 519 219.5C519.13 221.03 518 226.5 526 226.57C528.67 226.593 540.76 229.66 540.89 239.9C541.02 250.14 534.12 255.9 523.61 256.13C513.1 256.36 508.18 249.23 508.18 249.23L513.61 245.24Z" fill="#FDFC05"/>
<path d="M550.5 206.31H587.01L585.83 212.62H570L564.15 255.32H557.909L564.219 212.29L549.479 212.32L550.5 206.31Z" fill="#FDFC05"/>
<path d="M104.5 54.5C104.5 54.5 115.963 49.6503 114.877 63.1348C114.723 65.0503 114.18 66.9024 113.393 68.6553C105.58 86.0417 66.2345 158.733 49.5 176.5C43.36 183.16 41 191.5 22.5703 197.06C30.9803 189.18 118.17 75.34 104.5 54.5Z" fill="#B8B9B7" stroke="#AAAAAE" stroke-miterlimit="10"/>
<path d="M198 1.5C198 1.5 224.78 9.21 224.13 33.93C223.48 58.65 182.78 94.32 141 113.5C139.724 114.767 106.349 127.665 104.145 128.516C104.115 128.527 104.113 128.567 104.144 128.569C105.834 128.697 126.068 129.897 148.62 116.39C172.71 103.52 236.13 69.39 235.43 33.09C233.3 11.2 215.11 1.15 198 1.5Z" fill="#B8B9B7" stroke="#AAAAAE" stroke-miterlimit="10"/>
<path d="M102.751 54.0467C100.312 52.506 97.0003 53.458 94.735 55.2448C90.3967 58.6666 81.7095 67.8854 65.6603 92.66C58.4327 103.817 21.291 161.605 10.6828 178.112C8.80237 181.038 7.54217 184.324 7.71654 187.798C8.04162 194.274 10.4524 203.632 22.5703 197.06C39.2026 188.04 120.758 65.4192 102.751 54.0467Z" fill="#FDFC05" stroke="#AAAAAE" stroke-miterlimit="10"/>
<path d="M248.53 66.73C248.53 66.73 250.68 63.05 254.18 62C254.88 63.75 257.28 75.17 258.68 78.5C260.08 81.83 245 107 240.5 117C236.356 124.832 222.105 157.763 215.331 173.135C213.201 177.97 210.408 182.52 207.311 186.8C204.585 190.568 201.257 193.771 193.564 193.223C192.73 193.164 192.363 192.121 192.892 191.473C196.324 187.27 200.903 178.878 205 171C207.95 162.07 232.24 107.01 237.5 99.65C240.68 92 250.68 72 248.53 66.73Z" fill="#B8B9B7" stroke="#AAAAAE" stroke-miterlimit="10"/>
<path d="M267.5 37C267.5 37 281.31 31.04 281.01 50.68C282.01 64.19 280.44 75.49 289.37 78.2C288.23 78.73 275.71 86.52 271.94 66.55C271.5 52.54 273.24 44.71 267.5 37Z" fill="#B8B9B7" stroke="#AAAAAE" stroke-miterlimit="10"/>
<path d="M296.5 97.5C296.5 97.5 307 97.77 309.5 97C311.3 96.31 318 93 318 93C318 93 317.15 89.34 313 89.5C310.81 89.56 310.41 90.9901 303.94 94.9901C302.13 95.8401 296.5 97.5 296.5 97.5Z" fill="#B8B9B7" stroke="#AAAAAE" stroke-miterlimit="10"/>
<path d="M342.8 43.96C342.8 43.96 364.09 39.31 363.91 73.47C363.734 106.964 361.125 143.919 368.791 167.97C369.093 168.918 369.267 169.899 369.248 170.893C369.155 175.822 368.384 178.403 362.95 182.87C360.23 184.98 354.3 191.182 355 192.672C355.472 193.676 360.753 193.249 364.15 192.864C366.038 192.65 368.019 192.664 369.562 193.773C371.642 195.27 374.177 198.385 373.81 204.6C373.2 214.94 363.48 222.9 346.66 228.77C330.766 231.909 327.641 229.068 324.072 228.775C324.06 228.775 324.056 228.758 324.068 228.756C329.54 227.635 342.832 228.217 353.04 220.28C357.42 217.04 365.22 212.04 364.95 204.6C364.68 197.16 360.49 192.86 355.76 192.68C351.03 192.5 350.24 194.79 350.24 194.79C350.24 194.79 343.49 190.5 347.17 187.6C350.85 184.7 360.75 177.88 359.87 171.49C358.99 165.1 348.93 142.58 353.87 75.14C351.74 58.5 352.44 50.32 342.8 43.96Z" fill="#B8B9B7" stroke="#AAAAAE" stroke-miterlimit="10"/>
<path d="M399.83 123.84C399.591 124.228 399.387 124.636 399.22 125.06C399.32 126.68 401.99 134.78 408.67 126.9C411.39 124.19 434.85 83.5599 441 76.4999C446.5 71 443.5 61.4999 432.5 72.4999C425.65 79.1399 409.3 100.22 399.83 123.84Z" fill="#B8B9B7" stroke="#AAAAAE" stroke-miterlimit="10"/>
<path d="M416.013 38.2409C416.013 38.2409 416.293 36.9609 419.403 37.0009C422.513 37.0409 431.603 40.4409 431.343 48.0009C431.083 55.5609 423.933 66.4809 418.773 66.4809C416.013 65.5009 413.423 61.2309 421.043 50.9609C421.755 50.0009 422.523 46.3809 420.403 44.0009C418.903 41.0009 415.773 40.0809 416.013 38.2409Z" fill="#B8B9B7" stroke="#AAAAAE" stroke-miterlimit="10"/>
<path d="M471.39 42.47C471.39 42.47 499.5 41.68 497.14 56.92C492.14 72.16 485.58 81.36 491.14 81.92C537.5 87.5 556.83 92.17 566.29 98.74C572.6 102.68 589 111.5 589.94 133.16C589.94 145.5 575.5 187 503 183C547 180 578.38 164.72 579.16 134.23C576.8 120.57 576.27 97.18 519.25 88.23C498.25 85.08 471.5 86 479.31 74.83C484.83 65.64 496.3 49.23 471.39 42.47Z" fill="#B8B9B7" stroke="#AAAAAE" stroke-miterlimit="10"/>
<path d="M75.1745 33.3384C75.8837 31.5625 77.2675 30.2505 78.8571 29.1875C87.9886 23.0806 123.719 1.86159 181.11 0.510011C190.75 0.330011 224.21 1.56 223.33 32.22C224.12 33.93 222.98 63.93 170.6 97.56C167.8 99.49 122.42 125.06 104.03 128.56C103.5 128.21 91.5502 121.99 94.0002 115.5C96.8002 112.87 132.58 96.67 132.58 96.67C132.58 96.67 206.15 65.97 179 42.5C173.75 38.3 169.37 33.08 132.23 41.14C129.08 41.84 104.03 49.73 85.9903 48.5C71.8963 47.539 73.2997 38.0329 75.1745 33.3384Z" fill="#FDFC05" stroke="#AAAAAE" stroke-miterlimit="10"/>
<path d="M247.681 65.6799C247.681 65.6799 245.681 56.13 235.851 68.83C226.021 81.53 181.301 142.32 172.091 170.7C170.346 177.176 166.237 199.32 186.791 195.48C189.15 195.04 191.227 193.636 192.687 191.732C199.824 182.428 204.966 171.99 214.261 147.84C219.521 135.75 233 107.545 236.821 99.6599C241.5 90 250.091 72.0699 247.681 65.6799Z" fill="#FDFC05" stroke="#AAAAAE" stroke-miterlimit="10"/>
<path d="M262.611 35.37C262.611 35.37 252.611 34.98 252.101 51.66C254.211 67.66 259.591 98.83 282.981 98.57C306.371 98.31 306.871 89.7 313.181 89.79C315.801 89.79 321.081 92.39 316.751 100.41C312.481 108.319 299.886 195.137 322.392 228.114C323.008 229.016 323.912 229.661 325.002 229.747C337.013 230.704 373.414 215.254 363.5 198.5C358.07 192.37 356.561 191.2 350.251 194.79C348.411 194.7 343.771 190.32 347.011 187.17C350.251 184.02 360.501 178.17 359.451 170.52C358.401 162.87 349.451 144.16 353.931 88.19C353.931 73.74 353.931 43.19 337.461 42.99C334.615 43.0786 311.126 49.3632 290.338 76.9007C289.703 77.7415 288.866 78.4311 287.93 78.9138C285.137 80.3535 281.265 82.2161 277.201 77.41C273.611 71.41 270.981 68.13 271.331 53.85C271.071 47.32 272.381 35.72 262.611 35.37Z" fill="#FDFC05" stroke="#AAAAAE" stroke-miterlimit="10"/>
<path d="M405.691 59.32C405.691 59.32 386.771 130.5 393.301 130.5C399.831 130.5 423.301 69.5 441.131 67.96C447.441 76.1 429.041 95.28 435.871 103.96C442.701 112.64 517.87 103.96 516.28 131.81C515.22 137.339 509.506 144.075 499.558 147.973C494.593 149.918 489.302 151.263 485.027 154.451C477.88 159.78 470.16 169.083 484.129 179.178C488.744 182.514 494.531 183.604 500.214 183.237C527.737 181.458 580.349 171.995 579.081 134.17C577.251 124.98 577.251 92.04 503.141 86.17C498.941 85.56 476.251 84.42 478.531 77.59C480.811 70.76 501.391 44.74 464.251 42.03C460.469 42.03 449.356 41.0109 432.68 55.8513C430.695 57.6186 429.055 59.7501 427.295 61.742C425.045 64.2871 422.01 66.9563 420.351 66.13C419.251 65.38 416.351 64.74 418.031 60.18C419.32 56.6812 422.333 53.1648 424.2 49.6713C425.202 47.7937 424.653 45.5073 423.311 43.8555C420.899 40.8893 417.193 36.867 412.051 36.78C410.691 37.21 410.5 38 405.691 59.32Z" fill="#FDFC05" stroke="#AAAAAE" stroke-miterlimit="10"/>
<path d="M437.5 167.335C415.274 165.036 401.369 175.097 396.577 181.075C396.186 181.563 395.981 182.178 396.053 182.799C396.671 188.18 402.553 186.809 403.5 186.335C404.5 185.835 406 187.835 407 188.335C415.5 190.835 431 187.835 433 187.835C436.695 187.835 447.216 184.707 453.134 182.785C453.953 182.519 454.5 181.755 454.5 180.895V178.07C454.5 177.075 453.747 176.214 452.913 175.672C450.779 174.286 448.476 171.096 447.093 168.842C446.715 168.226 446.053 167.837 445.331 167.817C442.368 167.733 438.072 167.395 437.5 167.335Z" fill="#B8B9B7" stroke="#AAAAAE"/>
<path d="M430 168.335C414.711 168.718 403.075 176.739 398.581 181.232C398.191 181.622 397.902 182.127 397.961 182.675C398.085 183.802 398.894 184.716 399.657 185.301C400.157 185.684 400.829 185.664 401.406 185.414C402.194 185.072 403.124 184.73 403.847 184.607C404.635 184.474 405.392 185.059 405.983 185.598C406.414 185.991 406.906 186.463 407.339 186.834C407.752 187.187 408.285 187.335 408.828 187.335H421C429.065 185.912 438.931 184.039 442.055 183.424C442.354 183.365 442.656 183.295 442.898 183.108C444.234 182.075 443.979 179.055 443.384 177.247C443.026 176.162 441.879 175.895 440.865 175.37C439.955 174.899 439 174.104 438.146 173.131C437.702 172.626 437.491 171.969 437.237 171.346C436.182 168.768 432.689 168.483 430 168.335Z" fill="#FDFC05" stroke="#AAAAAE"/>
</g>
<defs>
<clipPath id="clip0_570_3571">
<rect width="595.92" height="260.11" fill="white"/>
</clipPath>
</defs>
</svg>
