<svg width="83" height="75" viewBox="0 0 83 75" fill="#ffffff" xmlns="http://www.w3.org/2000/svg">
<path d="M1 21.7214C3.54481 19.9354 10.4852 12.7498 19.7875 11.7053C30.0098 11.7053 46.2417 11.7053 46.2417 11.7053C46.2417 11.7053 69.9896 11.8411 70.4147 36.9543C70.8397 62.0675 48.7865 62.6106 48.7865 62.6106H30.2465V33.5106C30.2465 33.0998 30.6784 32.856 31.0138 33.0931C33.0575 34.538 38.51 39.189 38.9933 47.9543C39.0093 48.2444 39.2479 48.4795 39.5384 48.4795C40.686 48.4795 41.377 48.4795 41.7732 48.4795C42.0429 48.4795 42.2704 48.2874 42.3117 48.0209C42.6953 45.5444 44.7582 33.8493 49.6155 33.0213C49.9131 32.9706 50.1582 33.2227 50.1522 33.5245C50.0266 39.926 50.1638 48.4795 50.1638 48.4795C50.1638 48.4795 51.0354 55.0489 40.0276 61.0596C40.0276 61.0596 59.3531 61.3781 59.9342 47.7902C60.074 43.1268 59.9342 17.6011 59.9342 17.6011C59.9342 17.6011 46.205 19.7556 41.7531 31.3798C41.672 31.5915 41.469 31.7374 41.2422 31.7374H39.882C39.638 31.7374 39.4248 31.5787 39.3487 31.3468C38.605 29.0808 34.1617 17.7145 19.7821 17.4653V74H48.765C48.765 74 81.1642 71.0025 81.9928 38.3225C81.9928 37.0901 83.4077 1.27155 46.6506 1H23.9596C21.2115 1 18.4818 1.5793 16.1971 3.10635C11.8667 6.00066 4.70831 11.9855 1 21.7214Z" fill="white" stroke="black" stroke-width="0.538015" stroke-miterlimit="10"/>
</svg>
