<svg width="127" height="129" viewBox="0 0 127 129" fill="none" xmlns="http://www.w3.org/2000/svg">
<rect width="127" height="129" fill="black"/>
<path d="M23 48.7214C25.5448 46.9354 32.4852 39.7498 41.7875 38.7053C52.0098 38.7053 68.2417 38.7053 68.2417 38.7053C68.2417 38.7053 91.9896 38.8411 92.4147 63.9543C92.8397 89.0675 70.7865 89.6106 70.7865 89.6106H52.2465V60.5106C52.2465 60.0998 52.6784 59.856 53.0138 60.0931C55.0575 61.538 60.51 66.189 60.9933 74.9543C61.0093 75.2444 61.2479 75.4795 61.5384 75.4795C62.686 75.4795 63.377 75.4795 63.7732 75.4795C64.0429 75.4795 64.2704 75.2874 64.3117 75.0209C64.6953 72.5444 66.7582 60.8493 71.6155 60.0213C71.9131 59.9706 72.1582 60.2227 72.1522 60.5245C72.0266 66.926 72.1638 75.4795 72.1638 75.4795C72.1638 75.4795 73.0354 82.0489 62.0276 88.0596C62.0276 88.0596 81.3531 88.3781 81.9342 74.7902C82.074 70.1268 81.9342 44.6011 81.9342 44.6011C81.9342 44.6011 68.205 46.7556 63.7531 58.3798C63.672 58.5915 63.469 58.7374 63.2422 58.7374H61.882C61.638 58.7374 61.4248 58.5787 61.3487 58.3468C60.605 56.0808 56.1617 44.7145 41.7821 44.4653V101H70.765C70.765 101 103.164 98.0025 103.993 65.3225C103.993 64.0901 105.408 28.2716 68.6506 28H45.9596C43.2115 28 40.4818 28.5793 38.1971 30.1064C33.8667 33.0007 26.7083 38.9855 23 48.7214Z" fill="white" stroke="black" stroke-width="0.538015" stroke-miterlimit="10"/>
</svg>
