<svg width="1219" height="711" viewBox="0 0 1219 711" fill="none" xmlns="http://www.w3.org/2000/svg">
<path d="M1219.01 0H0V711H1219.01V0Z" fill="#02044A"/>
<path d="M101.582 101.569C101.582 74.6313 112.284 48.7968 131.335 29.7489C150.385 10.701 176.223 0 203.164 0L101.582 101.569C128.523 101.569 154.361 90.8681 173.411 71.8202C192.462 52.7723 203.164 26.9378 203.164 0" fill="#2B2D94"/>
<path d="M253.955 101.569C282.006 101.569 304.746 78.8321 304.746 50.7846C304.746 22.737 282.006 0 253.955 0C225.904 0 203.164 22.737 203.164 50.7846C203.164 78.8321 225.904 101.569 253.955 101.569Z" fill="#571453"/>
<path d="M304.746 101.569C304.746 74.6313 315.448 48.7968 334.499 29.7489C353.549 10.701 379.387 0 406.328 0L304.746 101.569C318.086 101.569 331.295 98.942 343.62 93.8377C355.944 88.7333 367.143 81.2518 376.575 71.8202C386.008 62.3887 393.491 51.1918 398.596 38.8688C403.701 26.5459 406.328 13.3382 406.328 0" fill="#181B73"/>
<path d="M812.672 0C839.613 0 865.451 10.701 884.501 29.7489C903.552 48.7968 914.254 74.6313 914.254 101.569L812.672 0C812.672 26.9378 823.374 52.7723 842.425 71.8202C861.475 90.8681 887.313 101.569 914.254 101.569" fill="#171A71"/>
<path d="M914.254 101.569C914.254 74.6313 924.956 48.7968 944.007 29.7489C963.057 10.701 988.895 0 1015.84 0L914.254 101.569C941.195 101.569 967.033 90.8681 986.083 71.8202C1005.13 52.7723 1015.84 26.9378 1015.84 0" fill="#232687"/>
<path d="M1015.84 0C1042.78 0 1068.62 10.701 1087.67 29.7489C1106.72 48.7968 1117.42 74.6313 1117.42 101.569L1015.84 0C1015.84 13.3382 1018.46 26.5459 1023.57 38.8688C1028.67 51.1918 1036.16 62.3887 1045.59 71.8202C1055.02 81.2518 1066.22 88.7333 1078.54 93.8377C1090.87 98.942 1104.08 101.569 1117.42 101.569" fill="#471151"/>
<path d="M203.164 101.569C230.105 101.569 255.943 112.27 274.993 131.318C294.044 150.366 304.746 176.2 304.746 203.138L203.164 101.569C203.164 128.507 213.866 154.341 232.917 173.389C251.967 192.437 277.805 203.138 304.746 203.138" fill="#25288A"/>
<path d="M304.746 203.138C304.746 176.2 315.448 150.366 334.499 131.318C353.549 112.27 379.387 101.569 406.328 101.569L304.746 203.138C318.086 203.138 331.295 200.511 343.62 195.407C355.944 190.302 367.143 182.821 376.575 173.389C386.008 163.958 393.491 152.761 398.596 140.438C403.701 128.115 406.328 114.907 406.328 101.569" fill="#D62D61"/>
<path d="M761.881 203.138C789.932 203.138 812.672 180.401 812.672 152.354C812.672 124.306 789.932 101.569 761.881 101.569C733.83 101.569 711.09 124.306 711.09 152.354C711.09 180.401 733.83 203.138 761.881 203.138Z" fill="#8C1F59"/>
<path d="M1015.84 203.138C1015.84 189.8 1018.46 176.592 1023.57 164.269C1028.67 151.946 1036.16 140.75 1045.59 131.318C1055.02 121.886 1066.22 114.405 1078.54 109.301C1090.87 104.196 1104.08 101.569 1117.42 101.569L1015.84 203.138C1042.78 203.138 1068.62 192.437 1087.67 173.389C1106.72 154.341 1117.42 128.507 1117.42 101.569" fill="#131669"/>
<path d="M0 203.138C26.9412 203.138 52.779 213.839 71.8293 232.887C90.8796 251.935 101.582 277.77 101.582 304.707L0 203.138C0 230.076 10.7024 255.911 29.7527 274.958C48.803 294.006 74.6408 304.707 101.582 304.707" fill="#27298D"/>
<path d="M812.672 304.707C812.672 277.77 823.374 251.935 842.425 232.887C861.475 213.839 887.313 203.138 914.254 203.138L812.672 304.707C839.613 304.707 865.451 294.006 884.501 274.958C903.552 255.911 914.254 230.076 914.254 203.138" fill="#F23264"/>
<path d="M965.045 304.707C993.096 304.707 1015.84 281.97 1015.84 253.923C1015.84 225.875 993.096 203.138 965.045 203.138C936.994 203.138 914.254 225.875 914.254 253.923C914.254 281.97 936.994 304.707 965.045 304.707Z" fill="#3A3DB0"/>
<path d="M1066.63 304.707C1094.68 304.707 1117.42 281.97 1117.42 253.923C1117.42 225.875 1094.68 203.138 1066.63 203.138C1038.58 203.138 1015.84 225.875 1015.84 253.923C1015.84 281.97 1038.58 304.707 1066.63 304.707Z" fill="#300D4F"/>
<path d="M0 304.708C26.9412 304.708 52.779 315.409 71.8293 334.456C90.8796 353.504 101.582 379.339 101.582 406.277L0 304.708C0 318.046 2.6275 331.253 7.73247 343.576C12.8374 355.899 20.3199 367.096 29.7527 376.528C48.803 395.576 74.6408 406.277 101.582 406.277" fill="#14166A"/>
<path d="M406.344 304.708C433.285 304.708 459.123 315.409 478.173 334.456C497.224 353.504 507.926 379.339 507.926 406.277L406.344 304.708C406.344 318.046 408.972 331.253 414.076 343.576C419.181 355.899 426.664 367.096 436.097 376.528C455.147 395.576 480.985 406.277 507.926 406.277" fill="#DE2F61"/>
<path d="M1117.43 406.277C1117.43 379.339 1128.14 353.504 1147.19 334.456C1166.24 315.409 1192.07 304.708 1219.02 304.708L1117.43 406.277C1130.77 406.277 1143.98 403.649 1156.31 398.545C1168.63 393.441 1179.83 385.959 1189.26 376.528C1198.7 367.096 1206.18 355.899 1211.28 343.576C1216.39 331.253 1219.02 318.046 1219.02 304.708" fill="#3336A2"/>
<path d="M355.537 507.862C383.588 507.862 406.328 485.125 406.328 457.077C406.328 429.029 383.588 406.292 355.537 406.292C327.486 406.292 304.746 429.029 304.746 457.077C304.746 485.125 327.486 507.862 355.537 507.862Z" fill="#1A1C75"/>
<path d="M609.508 507.862C609.508 480.924 620.21 455.089 639.261 436.041C658.311 416.993 684.149 406.292 711.09 406.292L609.508 507.862C636.449 507.862 662.287 497.161 681.337 478.113C700.388 459.065 711.09 433.23 711.09 406.292" fill="#3A0F50"/>
<path d="M812.672 406.292C839.613 406.292 865.451 416.993 884.501 436.041C903.552 455.089 914.254 480.924 914.254 507.862L812.672 406.292C812.672 433.23 823.374 459.065 842.425 478.113C861.475 497.161 887.313 507.862 914.254 507.862" fill="#681855"/>
<path d="M1117.43 507.862C1117.43 480.924 1128.14 455.089 1147.19 436.041C1166.24 416.993 1192.07 406.292 1219.02 406.292L1117.43 507.862C1144.38 507.862 1170.21 497.161 1189.26 478.113C1208.31 459.065 1219.02 433.23 1219.02 406.292" fill="#232585"/>
<path d="M457.135 609.431C485.186 609.431 507.926 586.694 507.926 558.646C507.926 530.599 485.186 507.862 457.135 507.862C429.084 507.862 406.344 530.599 406.344 558.646C406.344 586.694 429.084 609.431 457.135 609.431Z" fill="#11074C"/>
<path d="M761.881 609.431C789.932 609.431 812.672 586.694 812.672 558.646C812.672 530.599 789.932 507.862 761.881 507.862C733.83 507.862 711.09 530.599 711.09 558.646C711.09 586.694 733.83 609.431 761.881 609.431Z" fill="#0D064B"/>
<path d="M863.463 609.431C891.514 609.431 914.254 586.694 914.254 558.646C914.254 530.599 891.514 507.862 863.463 507.862C835.412 507.862 812.672 530.599 812.672 558.646C812.672 586.694 835.412 609.431 863.463 609.431Z" fill="#200A4D"/>
<path d="M1015.84 507.862C1042.78 507.862 1068.62 518.563 1087.67 537.611C1106.72 556.659 1117.42 582.493 1117.42 609.431L1015.84 507.862C1015.84 521.2 1018.46 534.408 1023.57 546.731C1028.67 559.054 1036.16 570.25 1045.59 579.682C1055.02 589.114 1066.22 596.595 1078.54 601.699C1090.87 606.804 1104.08 609.431 1117.42 609.431" fill="#090B57"/>
<path d="M50.791 711C78.8421 711 101.582 688.263 101.582 660.215C101.582 632.168 78.8421 609.431 50.791 609.431C22.7399 609.431 0 632.168 0 660.215C0 688.263 22.7399 711 50.791 711Z" fill="#14166A"/>
</svg>
