<svg width="113" height="87" viewBox="0 0 113 87" fill="none" xmlns="http://www.w3.org/2000/svg">
<path d="M9.03958 70.8673L0 70.9468V8.00934C0.323829 7.98832 0.623516 8.00935 1 8.00935C6.92896 8.00935 5.06577 8.04672 11 8.00935C11.5 9.50935 13.342 17.7712 13.5 18.5093C15.6747 28.6224 21.5592 44.4056 23.7725 54.5093C23.6323 54.2223 23.8743 54.8089 23.7725 54.5093C25.8366 43.6285 33.6216 18.6893 35.6436 8.03269H48V70.9468L37.2653 70.8744V36.8863L37.0021 36.8536C36.5492 38.7808 36.0885 40.7056 35.6436 42.6351C33.5374 51.7313 31.4312 60.8251 29.3908 69.9306C29.1933 70.809 28.7931 70.9585 27.9191 70.9468C25.1547 70.9094 22.3903 70.8977 19.6206 70.9468C18.6649 70.9655 18.2779 70.7132 18.0541 69.8559C15.8663 61.3764 13.6179 52.9086 11.3906 44.4361C10.764 42.0534 10.148 39.6684 9.51611 37.2881C9.45319 37.0424 9.28517 36.828 9.04748 36.6901L9.03958 70.8673Z" fill="url(#paint0_linear_158_12)"/>
<path d="M71.5078 23.848C71.4587 24.7411 71.1017 39.3748 71.1083 40.0774C71.1476 46.5193 71.2753 52.9578 71.2917 59.3964C71.2917 60.9231 71.7763 61.6093 73.358 61.5437C77.6511 61.3696 81.9541 61.8523 86.2407 61.2153C95.5277 59.8462 103.207 51.0141 103.315 41.6304C103.374 36.4329 102.529 31.5244 99.346 27.2463C95.7832 22.4756 90.786 20.3152 85.1273 19.4418C81.0265 18.8407 76.8509 18.9931 72.8046 19.8917C72.4378 19.9705 72.0121 20.128 71.7436 19.7603C71.4161 19.3072 71.7436 18.9198 72.0252 18.598C72.6179 17.8921 73.2532 17.2223 73.7968 16.4672C72.4869 17.1599 71.6061 18.3091 70.8889 19.5732C70.5352 20.2003 70.8168 20.742 71.4358 21.0704C71.6715 21.1984 71.9597 21.2214 72.202 21.3429C72.8897 21.6876 74.3175 21.4742 74.1832 22.3279C74.0195 23.3687 72.6572 22.9845 71.7894 23.0371C69.877 23.1717 67.9941 22.8729 66.1144 22.5347C63.2392 22.016 60.7177 22.4592 58.8904 25.0661C57.8785 26.5108 56.3492 26.258 54.8658 26.015C53.3823 25.7721 53.3103 24.6557 53.1728 23.5657C53.0735 22.7553 53.0264 21.9393 53.0319 21.1229C53.0002 20.7091 53.1138 20.2971 53.353 19.9584C53.5922 19.6196 53.942 19.3753 54.3418 19.2678C56.7487 18.424 58.3501 16.9695 58.9264 14.2542C59.3718 12.1857 61.4578 11.1416 63.0558 10.0188C66.301 7.72044 69.3269 5.31378 71.3408 1.81049C71.5111 1.515 71.701 1.02578 72.1857 1.2589C72.595 1.45261 72.5131 1.91556 72.4771 2.28329C72.3429 3.54408 71.8484 4.69652 71.1443 6.14445C73.783 5.23412 76.2199 3.81789 78.3192 1.97466C78.6074 1.72513 78.8399 1.40336 79.1477 1.18666C79.7142 0.786101 80.1039 -0.454986 80.88 0.175408C81.5349 0.69417 80.6704 1.5544 80.3757 2.21434C79.5014 4.18432 78.1063 5.76031 76.6032 7.30675C77.7957 7.26484 78.9392 6.8206 79.8485 6.04595C80.251 5.71932 80.7247 5.49233 81.231 5.38338C81.7373 5.27443 82.2622 5.28658 82.763 5.41885C85.648 6.07551 88.438 6.95872 91.0087 8.44605C91.4442 8.69887 92.1974 8.86303 91.9321 9.56238C91.716 10.1304 91.0741 9.89071 90.6222 9.79549C89.5407 9.58608 88.4291 9.58608 87.3475 9.79549C89.8223 10.2623 92.2573 10.9209 94.6305 11.7655C103.97 15.1177 109.537 21.8157 111.79 31.3832C113.368 38.1337 113.683 44.917 111.02 51.4935C106.567 62.4893 98.5765 69.1248 86.7319 70.865C82.0753 71.5512 77.3826 71.0817 72.7096 71.1572C68.0366 71.2327 63.452 71.1769 58.8216 71.1572C58.0979 71.1572 57.1843 71.3673 56.9747 70.297C56.7913 69.3448 56.883 68.4583 57.8982 67.91C61.0517 66.206 62.1029 63.3298 62.1127 59.971C62.1454 48.9391 62.1531 37.9093 62.1356 26.8818C62.1356 23.0371 62.3779 22.8729 66.1569 23.7889" fill="url(#paint1_linear_158_12)"/>
<path d="M64.2806 13.709C63.7403 13.1837 60.8487 14.7958 61.0059 15.5214C61.1009 15.9581 62.3584 16.3455 63.331 15.7808C64.3036 15.2161 64.595 14.021 64.2806 13.709Z" fill="white"/>
<path d="M103.221 72.4358C102.591 73.9321 102.241 75.3453 101.089 76.5506C98.0609 78.9256 94.4568 78.1775 91.0308 78.3972C89.6827 78.4275 88.3372 78.2656 87.0348 77.9162C86.7676 77.8153 86.3045 77.7619 86.0788 77.6906C85.551 77.6223 85.0276 77.5231 84.5113 77.3937L82.635 76.9603C79.5178 76.7703 76.9171 75.6124 73.3249 76.6456C72.4283 77.0256 71.8286 77.18 71.0924 78.3794C70.2373 78.2309 69.8514 77.7856 69.4298 79.4125C68.747 82.0013 69.0261 83.7766 70.2077 86.8285C73.5743 83.0404 73.3665 79.6025 73.408 79.1453C73.3546 78.6287 71.5792 78.5516 71.5792 78.5516C71.5677 78.7851 71.5379 79.0174 71.4902 79.2462L71.6208 78.4744L71.6802 78.4031L72.7193 77.3581C75.5396 76.5031 75.3852 76.9781 79.9987 77.4887C81.7384 77.9934 79.9275 77.5956 84.1907 78.4803C85.3782 78.7831 86.1382 79.1809 87.5276 79.4956C87.7296 79.5549 87.9279 79.6262 88.1214 79.7094C88.4123 79.7688 88.6676 79.8638 88.9051 79.8994L91.4523 80.41L92.8655 80.6535C94.4746 80.7366 96.1312 81.3363 97.9124 81.0394C99.0999 80.8375 99.7293 80.7485 101.178 80.4456C102.995 79.8519 103.63 79.6381 104.444 78.6644C105.423 77.4768 106.522 76.2893 106.979 74.7515C108.303 70.3517 109.491 68.2736 108.6 63.8204C108.006 62.0391 106.589 60.6328 106.5 59L103.417 62.9298L99.5 66C102 67 103.114 67.6739 103.268 71.8361" fill="url(#paint2_linear_158_12)"/>
<defs>
<linearGradient id="paint0_linear_158_12" x1="16.9969" y1="-20.2926" x2="30.1909" y2="93.3687" gradientUnits="userSpaceOnUse">
<stop stop-color="#FF2900"/>
<stop offset="0.0001" stop-color="#AE84E7"/>
<stop offset="0.996293" stop-color="#004478"/>
</linearGradient>
<linearGradient id="paint1_linear_158_12" x1="74.2634" y1="-32.0217" x2="87.8227" y2="96.9282" gradientUnits="userSpaceOnUse">
<stop stop-color="#FF2900"/>
<stop offset="0.0001" stop-color="#AE84E7"/>
<stop offset="0.996293" stop-color="#004478"/>
</linearGradient>
<linearGradient id="paint2_linear_158_12" x1="119" y1="-62.5" x2="86.7913" y2="96.8809" gradientUnits="userSpaceOnUse">
<stop stop-color="#AE84E7"/>
<stop offset="1" stop-color="#004478"/>
</linearGradient>
</defs>
</svg>
